# xmcd
#
# Track frame offsets:
#	150
#	8550
#	14970
#	21165
#	37632
#	53650
#	69567
#	84910
#	105467
#	126295
#	143757
#	163542
#	175507
#	187097
#	198092
#	211192
#	221380
#	227462
#
# Disc length: 3167 seconds
#
# Revision: 4
# Processed by: cddbd v1.5.1PL2 Copyright (c) Steve Scherf et al.
# Submitted via: audiograbber 1.83.01
#
DISCID=de0c5d12
DTITLE=Various Artist - Moods Of La Habana - CD 3
DYEAR=1999
DGENRE=Latin
TTITLE0=La Cantoría Coralillo - Arcoiris
TTITLE1=La Cantoría Coralillo - Muñeco
TTITLE2=La Cantoría Coralillo - De Colores Se Visten Los Campos
TTITLE3=Cuarteto Fénix - Cheche Colé
TTITLE4=Cuarteto Fénix - Chan Chan
TTITLE5=Cuarteto Fénix - La Gloria Eres Tú
TTITLE6=Cuarteto Fénix - La Bomba
TTITLE7=Cuarteto Fénix - Qué Manera De Querete
TTITLE8=Cuarteto Fénix - Yolando
TTITLE9=Cuarteto Fénix - Beso Discreto
TTITLE10=Cuarteto Fénix - Son De La Loma
TTITLE11=Dúo Enigma - Corazón De Cristal
TTITLE12=Dúo Enigma - A Mi Manera
TTITLE13=Dúo Enigma - Tercera Canción
TTITLE14=Dúo Enigma - Juramento
TTITLE15=Dúo Enigma - Tu Beso
TTITLE16=Dúo Enigma - Ella Y Yo
TTITLE17=Dúo Enigma - Flor De Amor
EXTD=
EXTT0=La Cantoría Coralillo
EXTT1=La Cantoría Coralillo
EXTT2=La Cantoría Coralillo
EXTT3=Cuarteto Fénix
EXTT4=Cuarteto Fénix
EXTT5=Cuarteto Fénix
EXTT6=Cuarteto Fénix
EXTT7=Cuarteto Fénix
EXTT8=Cuarteto Fénix
EXTT9=Cuarteto Fénix
EXTT10=Cuarteto Fénix
EXTT11=Dúo Enigma
EXTT12=Dúo Enigma
EXTT13=Dúo Enigma
EXTT14=Dúo Enigma
EXTT15=Dúo Enigma
EXTT16=Dúo Enigma
EXTT17=Dúo Enigma
PLAYORDER=
